<svg width="36" height="30" viewBox="0 0 36 30" fill="none" xmlns="http://www.w3.org/2000/svg">
<path d="M36 0.363281C34.596 1.19668 31.779 2.33248 30.123 2.66008C30.0744 2.67268 30.0348 2.68888 29.988 2.70148C28.5246 1.25788 26.5194 0.363281 24.3 0.363281C19.827 0.363281 16.2 3.99028 16.2 8.46328C16.2 8.69908 16.1802 9.13288 16.2 9.36328C10.1646 9.36328 5.571 6.20248 2.277 2.16328C1.9188 3.06328 1.7622 4.48528 1.7622 5.82088C1.7622 8.34268 3.7332 10.8195 6.8022 12.3549C6.237 12.5007 5.6142 12.6051 4.9662 12.6051C3.9204 12.6051 2.8134 12.3297 1.8 11.4945C1.8 11.5251 1.8 11.5539 1.8 11.5863C1.8 15.1107 5.5404 17.5101 8.8668 18.1779C8.1918 18.5757 6.831 18.6153 6.1668 18.6153C5.6988 18.6153 4.0428 18.4011 3.6 18.3183C4.5252 21.2073 7.8624 22.8309 11.043 22.8885C8.5554 24.8397 6.8292 25.5633 1.7352 25.5633H0C3.2184 27.6261 7.317 29.1651 11.4246 29.1651C24.7986 29.1651 32.4 18.9717 32.4 9.36328C32.4 9.20848 32.3964 8.88448 32.391 8.55868C32.391 8.52628 32.4 8.49568 32.4 8.46328C32.4 8.41468 32.3856 8.36788 32.3856 8.31928C32.3802 8.07448 32.3748 7.84588 32.3694 7.72708C33.7914 6.70108 35.0244 5.42128 36 3.96328C34.695 4.54288 33.2946 4.93168 31.824 5.10808C33.3252 4.20808 35.4582 2.06248 36 0.363281Z" fill="white"/>
</svg>
